<?xml version="1.0" encoding="utf-8"?>
<!-- Uploaded to: SVG Repo, www.svgrepo.com, Generator: SVG Repo Mixer Tools -->
<svg width="800px" height="800px" viewBox="0 0 1024 1024" class="icon"  version="1.1" xmlns="http://www.w3.org/2000/svg"><path d="M897.750844 216.03366c0-31.991297-26.053786-58.045083-58.108564-58.045083-32.051706 0-58.108564 26.053786-58.108564 58.045083 0 17.684547 8.122482 33.366375 20.622075 44.051642l-18.80775 81.977379h-196.760043l59.106852-64.919449c6.375734-6.99928 7.997568-17.12141 4.187691-25.803958-3.809877-8.750124-12.435087-14.309821-21.929576-14.309821h-59.797974v-87.976323c0-13.247028-10.745676-23.993729-23.993729-23.993729H403.077031c-13.248052 0-23.993729 10.745676-23.993728 23.993729v87.976323h-58.671701c-9.498584 0-18.119699 5.559697-21.933672 14.24634-1.436511 3.124898-2.060057 6.436143-2.060057 9.747388 0 5.809525 2.124562 11.622122 6.247748 16.120051l59.046443 64.919449H129.961764c-19.367815 0-35.097765 15.621418-35.097765 34.864319 0 19.310477 15.72995 34.867391 35.097765 34.867391h8.125554c0.060409 0.812965 53.297327 247.743389 53.297327 247.743389 8.995856 31.117923 28.616571 55.610284 60.418449 55.610283h451.501688c8.560705 0 16.622778-1.935143 23.993729-5.124546l50.549218 78.915962c2.188043 3.314317 0.498632 6.375734-3.249812 6.375734h-87.66199c-13.996512-37.865327-50.110996-64.983954-92.78756-64.983954-42.612059 0-78.791047 27.118627-92.787559 64.983954h-61.858032c-13.996512-37.865327-50.110996-64.983954-92.78756-64.983954-54.733838 0-99.285136 44.486793-99.285136 99.285136 0 54.736909 44.551298 99.223703 99.285136 99.223703 47.551282 0 87.291343-33.616203 96.910746-78.292415h53.550226c9.683907 44.676212 49.422945 78.292415 96.972179 78.292415 47.548211 0 87.288272-33.616203 96.910746-78.292415h83.538804c23.868815 0 44.176556-11.245333 54.423601-30.116563 9.997216-18.557922 8.310877-41.425376-4.622843-61.231414l-61.419809-95.848977c0.185323-1.251188 0.560065-2.437871 0.68498-3.749468 0 0 57.85976-246.809605 57.983649-247.80687h0.812965c19.434367 0 35.177628-15.556914 35.177629-34.867391 0-14.056922-8.497224-25.992353-20.554498-31.553074l16.808101-73.23135c25.179388-6.371638 43.859152-28.990289 43.859152-56.108916z" fill="#27323A" /><path d="M346.715216 880.78916c-27.92852 0-50.610652-22.930936-50.610652-51.234198 0-28.306334 22.682132-51.297679 50.610652-51.297679 27.931592 0 50.549218 22.992369 50.549218 51.297679 0 28.303262-22.617627 51.234198-50.549218 51.234198zM594.148367 880.78916c-27.92852 0-50.549218-22.930936-50.549218-51.234198 0-28.306334 22.620698-51.297679 50.549218-51.297679 27.931592 0 50.549218 22.992369 50.549219 51.297679 0 28.303262-22.618651 51.234198-50.549219 51.234198zM403.077031 285.015886c13.243957 0 23.993729-10.745676 23.993729-23.993728v-87.976323h93.097797V261.022158c0 13.248052 10.748748 23.993729 23.993729 23.993728h29.493017c-36.054074 39.615147-79.22927 87.038444-99.533941 109.345833-20.307742-22.30739-63.422529-69.730686-99.473531-109.345833h28.4292z" fill="#F4CE73" /><path d="M290.355448 662.03606h-38.552354c-4.373014 0-7.872654-3.561073-7.872654-7.869583a28.023741 28.023741 0 0 0-0.560065-5.563793s-8.998928-41.425376-19.495801-89.974946h66.480874v103.408322z" fill="#79CCBF" /><path d="M290.355448 505.51983h-77.979106c-9.245684-42.676564-17.556562-81.289328-20.244261-93.724415h98.222343v93.724415z" fill="#FFFFFF" /><path d="M343.528885 558.627738h103.661222v103.408322H343.528885z" fill="#79CCBF" /><path d="M343.528885 505.51983v-93.725439h81.602636l22.058586 24.243557v69.481882z" fill="#FFFFFF" /><path d="M500.298015 558.627738h103.661222v103.408322H500.298015z" fill="#79CCBF" /><path d="M603.959237 505.51983H500.298015v-68.608508l22.838786-25.116931h80.822436z" fill="#FFFFFF" /><path d="M711.802006 648.104052c-1.123202 3.374726-4.184619 13.932008-8.497224 13.932008h-46.236614V558.627738h75.793112c-11.311885 48.236262-21.059273 89.476315-21.059274 89.476314z" fill="#79CCBF" /><path d="M745.418209 505.51983h-88.350041v-93.724415H767.476795c-3.001008 12.619387-12.061369 51.10826-22.058586 93.724415z" fill="#FFFFFF" /></svg>